<?xml version="1.0" standalone="no"?>
<!DOCTYPE svg PUBLIC "-//W3C//DTD SVG 20010904//EN"
 "http://www.w3.org/TR/2001/REC-SVG-20010904/DTD/svg10.dtd">
<svg version="1.0" xmlns="http://www.w3.org/2000/svg"
 width="503.000000pt" height="503.000000pt" viewBox="0 0 503.000000 503.000000"
 preserveAspectRatio="xMidYMid meet">

<g transform="translate(0.000000,503.000000) scale(0.100000,-0.100000)"
fill="#000000" stroke="none">
<path d="M0 2515 l0 -2515 2515 0 2515 0 0 2515 0 2515 -2515 0 -2515 0 0
-2515z m5010 45 l0 -2450 -50 0 -50 0 0 -50 0 -50 -100 0 -100 0 0 50 0 50
-100 0 -100 0 0 -50 0 -50 -100 0 -100 0 0 150 0 150 -50 0 -50 0 0 -150 0
-150 -50 0 -50 0 0 150 0 150 -50 0 -50 0 0 -150 0 -150 -50 0 -50 0 0 150 0
150 50 0 50 0 0 50 0 50 -100 0 -100 0 0 -200 0 -200 -1900 0 -1900 0 0 2500
0 2500 2500 0 2500 0 0 -2450z"/>
<path d="M810 4460 l0 -50 50 0 50 0 0 50 0 50 -50 0 -50 0 0 -50z"/>
<path d="M1010 1360 l0 -50 -50 0 -50 0 0 -100 0 -100 50 0 50 0 0 -50 0 -50
50 0 50 0 0 -50 0 -50 50 0 50 0 0 50 0 50 50 0 50 0 0 50 0 50 50 0 50 0 0
100 0 100 -50 0 -50 0 0 50 0 50 -50 0 -50 0 0 -50 0 -50 -50 0 -50 0 0 50 0
50 -50 0 -50 0 0 -50z m300 -150 l0 -100 -50 0 -50 0 0 -50 0 -50 -50 0 -50 0
0 50 0 50 50 0 50 0 0 100 0 100 50 0 50 0 0 -100z"/>
<path d="M1710 1360 l0 -50 -50 0 -50 0 0 -100 0 -100 50 0 50 0 0 -50 0 -50
50 0 50 0 0 -50 0 -50 50 0 50 0 0 50 0 50 50 0 50 0 0 50 0 50 50 0 50 0 0
100 0 100 -50 0 -50 0 0 50 0 50 -50 0 -50 0 0 -50 0 -50 -50 0 -50 0 0 50 0
50 -50 0 -50 0 0 -50z m300 -150 l0 -100 -50 0 -50 0 0 -50 0 -50 -50 0 -50 0
0 50 0 50 50 0 50 0 0 100 0 100 50 0 50 0 0 -100z"/>
<path d="M2410 1360 l0 -50 -50 0 -50 0 0 -100 0 -100 50 0 50 0 0 -50 0 -50
50 0 50 0 0 -50 0 -50 50 0 50 0 0 50 0 50 50 0 50 0 0 50 0 50 50 0 50 0 0
100 0 100 -50 0 -50 0 0 50 0 50 -50 0 -50 0 0 -50 0 -50 -50 0 -50 0 0 50 0
50 -50 0 -50 0 0 -50z m300 -150 l0 -100 -50 0 -50 0 0 -50 0 -50 -50 0 -50 0
0 50 0 50 50 0 50 0 0 100 0 100 50 0 50 0 0 -100z"/>
<path d="M4110 360 l0 -50 50 0 50 0 0 50 0 50 -50 0 -50 0 0 -50z"/>
<path d="M4510 360 l0 -50 -50 0 -50 0 0 -100 0 -100 50 0 50 0 0 100 0 100
100 0 100 0 0 -100 0 -100 50 0 50 0 0 100 0 100 -50 0 -50 0 0 50 0 50 -100
0 -100 0 0 -50z"/>
</g>
</svg>
